<?xml version="1.0" encoding="UTF-8"?>
<svg id="Layer_1" xmlns="http://www.w3.org/2000/svg" version="1.1" viewBox="0 0 1024 1024">
  <!-- Generator: Adobe Illustrator 30.2.1, SVG Export Plug-In . SVG Version: 2.1.1 Build 1)  -->
  <path d="M478.99,831.67c20.92,13.67,29.55,36.4,27.21,60.14-3.14,31.86-27.02,53.82-59.88,55.79,8.49,9.82,18.9,14.87,30.62,17.4,32.68,7.06,67.29-3.16,90.29-27.41,14.87-15.67,22.05-35.31,25.67-56.34,1.85-18.89,1.1-37.17-3.42-55.8l-17.08-70.44c-56.56,13.37-113.64,7.72-165.32-18.11l-26.08,20.8c-34.86,27.81-78.78,50.44-124.75,38.11-64.2-17.22-84.72-94.24-58.09-151.9,7.13-15.44,18.65-28.5,34.27-34.69,14.56-5.77,31.34-4.16,41.99,6.98,8.07,8.44,10.03,19.9,6.87,31.12-2.66,9.47-9.96,20.67-21.78,22.49,1.56-8.97.9-16.63-3.81-21.67-5.41-5.79-13.32-8-21.19-5.54-10.33,3.23-18.11,11.49-22.31,21.45-9.12,21.59-8.6,44.76-.46,66.52,11.45,30.58,40.13,48.98,73.02,46.4,38.34-3,70.62-29.07,98.08-53.98-59.51-40.58-90.37-107.68-84.48-178.17,6.12-73.3,49.59-133.79,103.34-181.03l59.06-51.89c-11.59-53.11-25.32-107.92-16.04-162.51,8.01-47.11,34.45-101.73,81.01-119.86,6.94-2.7,14.87-2.33,21.06,2.09,11.73,8.39,21.25,18.18,29.33,30.5,47.29,72.13,44.61,156.84-2.35,228.85-18.8,28.07-41.13,52.01-67.4,74.24l18.86,75.03c52.6-12.09,107.78-3.92,149.3,34.35,29.31-22.58,53.72-48.66,91.86-54.13,30.34-4.35,57.66,12.99,66.17,42.71,8.28,28.9,5.35,60.49-8.3,87.34-8.52,16.76-22.01,29.94-39.93,33.97-14.05,3.16-28.89-1.64-34.8-15.01-7.52-17,1.73-37.91,19.45-43.57-1.37,8.59-1.35,16.15,3.89,21.31,5.07,5,12.99,6.7,20.47,3.57,26.52-11.09,31.96-59.25,19.54-88.28-7.53-17.6-24.57-26.7-43.07-22.23-29.7,7.17-52.99,32.88-77.59,52.97,44.55,59.28,40.94,140.29-8.38,195.46-22.63,25.31-50.45,43.97-82.06,56.92,13.03,55.46,32.59,109.95,16.03,165.32-11.92,36.71-39.7,64.77-76.59,77.48-62.93,21.67-148.39-1.86-168.02-72.04-5.63-20.12-3.85-40.79,5.89-58.93,19.47-36.24,64.99-48.57,99.88-25.77ZM488.6,288.66c20.34-17.74,36.52-34.82,52.26-54.14,15.57-20.69,26.76-43.25,31.62-68.75,2.57-17.81,1.19-36.03-7.8-51.15-8.19-13.76-23.57-18.13-36.91-9.05-13.91,9.46-24.3,22.97-31.62,38.5-21.09,44.8-20.9,96.14-7.55,144.59ZM460.56,657.11c-45.81-34.73-56.53-93.78-31.87-142.79,15.15-27.72,38.19-49.1,67.44-63.09l-15.87-64.22c-28.26,23.9-53.95,47.74-76.66,75.69-56.55,70.91-62.78,171.1,12.26,232.96l44.71-38.54ZM616.82,523.07c-23.84-16.8-49.79-22.35-75.83-17.97l17.76,67.86,58.07-49.89ZM477.29,642.58l55.08-47.26-20.6-81.72c-21.98,9.85-38.87,26.67-48.23,48.53-11.73,27.32-6.91,58.69,13.74,80.45ZM594.92,716.07c27.76-14.13,47.99-35.98,59.41-63.78,14.63-37.62,9.35-79.18-17.34-111.68l-71.62,60.93,29.55,114.53ZM483.1,671.72l-44.44,38.81c40.33,21.8,84.4,26.39,126.99,16.75l-26.35-103.51-42.9,36.71,18.29,12.32c.76,1.52,2.61,5.01,1.26,5.69l-5.44,2.73-27.4-9.5Z"/>
</svg>