<?xml version="1.0" encoding="UTF-8"?>
<svg id="Layer_1" xmlns="http://www.w3.org/2000/svg" version="1.1" viewBox="0 0 569.74 331.49">
  <!-- Generator: Adobe Illustrator 30.2.1, SVG Export Plug-In . SVG Version: 2.1.1 Build 1)  -->
  <path d="M371.35,14.15c-8.77,4.66-13.46,16.48-13.46,25.69l-.03,56.93c0,12.19-6.09,17.67-14.34,24.93l7.15,1.67c4.43,1.04,9.24,2.66,13.42,4.41,5.97,2.5,11.92-2.09,13.87-6.25.16-.33,2.25-.36,2.21.08-.61,5.85-12.12,15.75-17.33,18.79-2.43,1.42-6.21,1.7-8.5.98l-10.8-3.37c-10.47-3.27-19.44-1.25-29.74,4.51,7.21-13.13,21.94-16.43,21.97-34.8l.1-56.95c.02-12.76,6.28-18.96,14.75-26.43-9.62-.67-18.45-6.77-26.78-4.73-1.93.47-4.62,3.82-5.9,5.13l-1.3,1.33c-.23.24-.6.02-.73-.26-1.67-3.65,12.43-16.23,16.67-18.98,3.37-2.18,6.74-2.09,9.91-.79l9.93,4.09c7.39,3.04,14.21,1.68,21.06-1.5,13.25-6.15,29.23-3.58,38.62,7.5s9.83,24.58,3.64,36.69c-6.51,12.74-15.78,15.97-28.14,20.62,19.96,6.7,25.71,23.11,34.88,39.46l10.44,18.61c17.1-10.12,21.03-24.21,28.97-42.1-8.36-1.95-15.97-.66-22.34,4.1-4.42,3.3-5.78,8.57-7.75,14.68-2.13-8.91,2.35-19.47,11.39-26.04,6.86-4.99,14.83-6.58,23.99-6.06l9.53-22.66,9.37-23.8c.91-2.32-1.14-6-3.05-7.1-9.77-5.65-7.63-1.14-14.87-4.62l9.07-1.5c9.85-1.63,18.14-5.91,24.75-13.58.75-.87,2.44-2,3.91-2.85-2.31,7.1-1.72,12.29.96,18.51l10.55,24.51,11.16,25.93,6.05,14.05c.33.77.89,1.9,1.18,2.41,1.44,2.5,11.35-3.81,13.59-13.86,1.06-4.78-.97-8.65-5.24-10.66,2.47-1.92,5.89-.36,7.04,2.56,2.67,6.77.57,14.94-4.69,19.99-7.15,6.86-9.55,5.82-7.59,9.95,4.97,10.5,9.35,20.23,15,30.26,1.19,2.11,4.56,4.45,6.57,4.51,2.47.08,5.45-1.06,9.23-2.23-1.99,5.67-5.98,11.85-11.82,14.71-7.19,3.52-15.82,1.05-21.36-4.51-8.12-8.15-13.51-23.4-18.11-34.89-2.11-5.26-7.66.4-23.88-3.41-12.39-2.91-14.81-5.18-26.52-7.12-3.84,8.84-7.1,16.34-9.01,25.35-.86,4.04,2.73,8.62,5.36,10.2,3.68,2.2,8.91,2.5,12.46.49l6.15-3.48c-2.3,7.17-16.15,18.45-22.96,17.73-8.2-.88-15.59-6.58-24.5-5.95,5.54,10.83,20.1,23.85,32.91,19.53,5.68-1.92,9.64-5.84,13.9-10.29l1.58,1.3c-12.21,15.88-31.59,20.52-48.74,12.8-30.49-13.72-34.56-49.53-53.07-73.87-3.18-4.19-8.37-7.7-13.32-8.55-2.66-.45-4.28-.63-6.46-2l12.93-2.73c10.07-2.12,16.54-9.23,19.61-18.84,3.68-11.54,2.84-23.99-5.1-33.56-4.44-5.35-11.93-8.12-18.44-4.67ZM512.31,88.04l-6.32-16.08-15.21-35.59-17.25,40.64,10.86,3.43c9.49,2.99,17.62,6.55,27.91,7.6Z"/>
  <path d="M280.23,127.49l4.56,6.18c-2.11.88-4.62,1.92-7.08,1.96-15.63.22-23.72,11.74-27.23,11.65-2.81-.08,4.7-9.91-.99-23.92l-8.09-19.93-14.03-34.11-14.92-37.01c-1.89-4.7-4.17-8.94-7.03-13.09-5.41-7.86-15.38,6.65-18.23,10.99s-5.52,8.44-8.1,12.87l-19.53,33.54c-1,1.72-2.59,4.97-3.35,6.68l-.41,16.64c-.15,6.18-4.07,12.3-8.34,16.16l-6.65,6c2.83.47,5.3.44,6.89.93l14.48,4.41c9.21,2.81,13.36-5.02,15.14-6.52.28-.23,1.4.08,1.38.44-.23,4.78-12.4,15.5-17.42,18.75-11.39,7.38-26.45-13.12-45.99,1.23-.75.55-2.24.68-3.81.45,8.34-10.18,19.83-14.52,21.17-28.44,2.69-27.97,1.69-26.8-9.59-46.47l-14.65-25.55c-4.69-8.19-11.1-21.46-20.02-21.93-10.46-.56-15.07,14.96-11.77,25.58,1.34,4.33,5.01,7.08,9.34,7.9l6.71,1.27c.71.13-1.06,2.39-2.03,2.41-8.93.18-16.92-6.27-18.11-15.52-1.65-12.83,4.09-24.51,14.77-31.74,9.38-6.34,21.72-5.21,29.06,4.04,4.09,5.16,7.74,10.9,11.08,16.69l10.61,18.4,15.14,24.96c2.08-2.59,3.33-4.11,4.4-5.99l16.31-28.81c2.22-3.91,3.24-9.27,1.67-13.64-2-5.58-9.36-8.13-14.36-5.07-2.37,1.45-4.45,3.81-6.23,5.8l-1,.45c-.34.15-.56-2.17-.28-2.6,3.29-5.14,10.04-12.2,15.56-16.3,3.47-2.58,6.72-2.75,10.28-1.11,9.6,4.44,16.64,8.57,24.83,2.42,4.45-3.35,9.85-4.63,15.27-2.05,4.97,2.37,9.31,7.49,11.47,12.86l15.02,37.22,13.51,34.27,10.19,26.05c3.31-4.23,5.56-7.38,7.98-11.34l8.76-14.33c10.99-17.98,13.91-43.46,1.92-61.81-3.58-5.48-9.07-8.92-15.54-9.34s-11.54,2.89-13.18,8.96c-2.68,9.87-2.13,20.43,8.99,24.12l1.79.59c.41.14-.22,1.84-.81,1.88-4.79.3-10.89-3.9-12.51-8.91-5.5-17.07,1.99-34.51,18.37-40.3,10.72-3.78,21.77.34,28.76,8.79,10.51,12.7,12.93,30.69,8.03,46.28-3.3,10.52-8.37,20.15-14.75,29.15l-13.7,19.3c-1.66,2.33-4.66,5.47-5.59,8.19-.71,2.1.57,7.53,1.93,9.36Z"/>
  <path d="M156.21,267.66l-89.32-3.79c-1.72-.07-3.26-.81-4.21-1.76l17.17-.98,25.01-1.21,53.44-1.39c6.15-.16,5.03-7.21,16.44-8.67,6.96-.89,12.55,2.39,15.81,8.27l11.06.47c1.64,2.13.31,8-2.12,9.46l-9.55-.18c-3.32,6.28-10.24,9.01-17.19,6.66-4.49-1.52-5.37-9.07-8.43-7.19-.76.47-1.61,2.26-1.71,3.45-.91,11.48,8.89,20.09,20.25,19.39,4.92-.3,20.66-2.44,23.93-5.49-6.8-20.91,4.25-43.53,24.14-51.71,10.8-4.44,23.17-4.72,34.18-.16,8.63,3.58,15.95,9.7,22.43,16.24,1.02,1.03,3.93.45,5.1-.3,9.48-6.07,18.42-12.06,28.85-16.11l10.87-4.22c23.82-4.94,40.83,2.47,53.19,24.33,27.57-24.93,55.01-26.36,89.08-18.52,16.59,3.82,31.67,6.16,47.5-2.11,6.68-3.49,11.59-8.99,16.6-14.34-7.28,18.64-32.76,27.18-51.64,23.56l-11.71-2.24c-33.09-6.34-54.33-7.08-83.48,14.62,5.56,1.81,21.86,1.91,21.08,9.53-.75,7.38-28.65,8.39-35.02,8.4-14.14,22.63-23.32,35.62-46.1,49.89-2.5,1.56-23.14,14.73-24.38,8.04,2.87-2.82,6.09-4.79,9.46-6.49,6.66-3.37,12.55-7.23,18.61-11.52,11.51-8.14,21.04-17.8,28.55-29.68l6.29-9.94-8.87-1c-1.7,5.67-3.51,9.59-7.66,12.73-15.37,11.64-37.62,8.8-52.63-1.45-5.99-4.09-10.83-8.8-16.56-13.88-5.33-.33-11.95.05-18.29.48,3.36,12.51.23,25.34-10.02,33.26-7.29,5.63-16.71,6.61-25.45,4.5-19.38-4.69-16.95-16.84-23.87-15.12-13.33,3.32-17.36,5.03-31.22,4.33l-8.34-3.79c-8.12-5.12-12.63-13.28-11.28-24.39ZM343.89,255.61l34.95-1.64c-1.48-7-14.57-17.05-21.16-19.13-22.94-7.24-44.53,7.91-63.87,18.98,0,1.9,2.24,4.04,3.96,3.96l46.12-2.17ZM225.81,267.61c-1.96-.02-4.72,4.31-5.39,4.88-1.13-7.7,3.87-14.24,10.79-17.17,9.08-3.85,19.44-3.46,27.16,3.4l16.01-.81c-8.87-10.98-22.78-19.04-36.49-17.09-7.39,1.05-14.59,5.05-19.16,10.76-6.08,7.58-7.25,16.72-7.04,26.34.04,1.91.99,4.61,2.31,5.9l15.02-5.51,21.37-8.4c-2.51-1.63-4.69-2.14-7.55-2.16l-17.04-.13ZM384.26,265.99c4.29-.26,11.61-1.53,16.11-3.99-2.7-1.6-7.73-2.42-10.31-2.3-1.23.06-3.79,4.01-3.69,3.85-.92,1.49-3.24-4.36-6.61-4.18l-19.87,1.08c-2.38.13-4.59.74-6.47,1.98,7.25,2.71,14.77,3.13,21.14,2.58.93-1.15,2.7-3.36,3.73-3.09,4.11,1.09,2.8,4.27,5.98,4.07ZM339.56,283.62c1.24,0,4.05-1.2,4.56-2.32,2.05-4.47-.68-12-4.2-12.09l-32.92-.86c8.25,9.72,21.12,15.29,32.55,15.28ZM251.95,276.39l-9.05,3.28-26.97,9.45c4.63,6.53,10.86,8.66,17.34,8.56,9.92-.15,20.15-8.59,18.67-21.29Z"/>
  <path d="M95.02,96.81c7.28-2.55,14.49,1.32,16.54,7.96,2.78,9.03-.47,17.7-5.86,24.88-13.52,18.02-33.81,13.97-52.96,7.09-9.98-3.59-20.24-5.79-30.92-3.95-8.82,1.52-15.18,7.2-21.75,13.39-1.05-8.02,10.6-14.49,17.52-23.82,3.78-5.09,5.54-12.02,5.63-18.51l.41-30.86.07-24.27c.02-6.53,2.83-12.53,6.86-17.14l5.89-6.74-17.72-4.77c-5.95-1.6-11.05.47-14.53,5.16l-.99,1.34c-.21.29-1.25-.14-1.35-.48C.73,21.96,15.62,9.13,20.07,6.3c2.24-1.43,6.12-1.6,8.1-.81l11.01,4.35c4.62,1.82,11.65,3.1,16.29.82l10.88-5.35c-2.34,4.39-5.52,6.31-8.85,9.17-7.87,6.76-11.7,14.29-11.67,25.17l.1,49.05c.02,8.76-2.67,16.2-8.68,22.67l-9.82,10.56c13.62-4.67,25.47-5.71,38.5-1.88l13.21,3.88c6.89,2.02,14.99,4.08,22.13,1.21,8.64-3.47,10.66-15.85,5.4-23.07-2.18-3-6.09-3.6-10.19-3.31-.33-.32-1.07-1.32-1.44-1.95Z"/>
  <path d="M205.33,230.87l9.62,1.59-24.14.62-54.02,1.49-107.51.07c-.09-2.16-.09-3.55.03-5.38l95.48-.23,43.06.92,17.94.52,19.54.41Z"/>
</svg>